<svg aria-hidden="true" style="position: relative; width: 80; height: 50; overflow: hidden; fill: red;">
<defs>
<symbol id="icon-movie-svg" viewBox="0 0 32 32">
<path d="M14.494 4.313c-8.963 3-12.944 4.363-13.044 4.456-0.419 0.387-0.419 0.731-0.012 1.944l0.313 0.931-0.25 0.294c-0.831 0.988-0.944 2.412-0.287 3.531 0.175 0.294 0.663 0.8 0.919 0.95l0.181 0.106v7.225c0 5.006 0.019 7.294 0.069 7.469 0.081 0.294 0.325 0.575 0.6 0.694 0.169 0.075 2.394 0.087 13.813 0.087 13.444 0 13.606 0 13.856-0.125 0.144-0.069 0.325-0.225 0.413-0.356l0.156-0.231v-17.756l-24.363-0.063-0.081-0.325c-0.044-0.181-0.156-0.469-0.237-0.637l-0.156-0.306 5.825-1.95c3.206-1.075 8.444-2.825 11.637-3.888 3.2-1.069 5.838-1.962 5.869-1.987 0.025-0.031-0.238-0.913-0.581-1.956-0.675-2.019-0.744-2.15-1.175-2.331-0.113-0.050-0.281-0.087-0.381-0.087s-5.981 1.944-13.081 4.313zM24.856 2.138c-0.012 0.044-0.175 0.7-0.356 1.456s-0.356 1.406-0.4 1.444c-0.081 0.088-2.969 1.050-3.012 1.006-0.012-0.013 0.137-0.681 0.331-1.487l0.363-1.462 1.5-0.512c0.825-0.281 1.525-0.513 1.556-0.513 0.025-0.006 0.038 0.031 0.019 0.069zM17.188 4.669c0 0.031-0.156 0.706-0.356 1.5l-0.363 1.456-1.5 0.5c-0.825 0.275-1.519 0.5-1.537 0.5-0.031 0 0.412-1.938 0.637-2.763l0.056-0.225 1.488-0.5c1.6-0.544 1.575-0.537 1.575-0.469zM9.537 7.294c-0.019 0.063-0.162 0.631-0.319 1.269s-0.313 1.262-0.35 1.387l-0.056 0.225-1.513 0.506c-0.831 0.275-1.525 0.494-1.538 0.475-0.013-0.012 0.138-0.688 0.338-1.494l0.369-1.475 1.469-0.494c0.806-0.275 1.506-0.5 1.55-0.5 0.050-0.006 0.069 0.037 0.050 0.1zM4.475 12.5c0.744 0.319 1.106 1.262 0.769 2-0.169 0.375-0.4 0.613-0.775 0.787-1.019 0.481-2.188-0.275-2.175-1.4 0.006-0.406 0.087-0.644 0.306-0.938 0.444-0.575 1.175-0.75 1.875-0.45zM11.125 14.406c0 0.037-1.506 2.425-1.594 2.519-0.050 0.056-0.444 0.075-1.675 0.063l-1.606-0.019 0.819-1.3 0.819-1.294h1.619c0.894 0 1.619 0.012 1.619 0.031zM19.188 14.419c-0.006 0.031-0.363 0.613-0.8 1.3l-0.8 1.25-1.613 0.019c-1.313 0.012-1.606 0-1.588-0.069 0.012-0.044 0.369-0.637 0.8-1.313l0.781-1.231h1.606c0.887 0 1.613 0.019 1.613 0.044zM26.644 15.419c-0.363 0.581-0.731 1.163-0.825 1.3l-0.169 0.25-1.613 0.019c-1.413 0.012-1.613 0-1.581-0.081 0.025-0.050 0.387-0.637 0.806-1.313l0.769-1.219h3.275l-0.663 1.044zM17.994 21.875c1.444 0.913 2.631 1.675 2.631 1.7 0 0.031-4.894 3.125-5.356 3.387-0.063 0.038-0.081-0.663-0.081-3.4 0-2.881 0.012-3.438 0.088-3.394 0.044 0.025 1.269 0.794 2.719 1.706z"></path>
</symbol>
</defs>
</svg>
